<svg xmlns="http://www.w3.org/2000/svg" viewBox="0 0 539.63 115.8"><defs><style>.cls-1{fill:#020201;}.cls-2{fill:#222221;}</style></defs><title>logo_diffestudio</title><g id="Capa_2" data-name="Capa 2"><g id="Capa_1-2" data-name="Capa 1"><path class="cls-1" d="M0,0H38.43q22.3.16,33.46,19.13a34.82,34.82,0,0,1,5,13.38q.83,7,.83,24.19,0,18.28-1.28,25.51a29.17,29.17,0,0,1-1.81,6.53,61.18,61.18,0,0,1-3.09,5.83,38.81,38.81,0,0,1-13.41,13.22q-8.51,5.6-20.87,5.6H0ZM16.63,97.22H36.54q14,0,20.36-9.9A19.23,19.23,0,0,0,60.45,78a204.9,204.9,0,0,0,.68-20.73q0-14.81-.68-21.2a19.85,19.85,0,0,0-4.3-10.36q-6.94-9.9-19.61-9.59H16.63Z"/><path class="cls-1" d="M100.32,0h16.63V113.39H100.32Z"/><path class="cls-1" d="M141.38,0h70.16V16.17H158V49.7h45.7V64.93H158v48.46H141.38Z"/><path class="cls-1" d="M231.67,0h64.39c3.77,0,7.25,2.07,7.25,7.38s-3.48,7.38-7.25,7.38H246.17V37.48h35.68c3.77,0,7.25,2.07,7.25,7.38s-3.48,7.38-7.25,7.38H246.17v55.19c0,4.72-2,7.38-7.25,7.38s-7.25-2.66-7.25-7.38Z"/><path class="cls-2" d="M348.5,1V4.56H325.55V21.18h21v3.56h-21v18.2H348.5V46.5H321.73V1Z"/><path class="cls-2" d="M375.07,20.59c-2-2.9-4.15-4-9-4-4.42,0-7.78,1.65-7.78,5.41,0,4.62,4.15,5.54,8.77,6.13,6.4.86,11.74,2.7,11.74,9.69,0,5.14-3.3,9.1-12.07,9.1-6.53,0-10-2-12.4-5.47l2.83-2c2,2.77,4.48,4,9.63,4s8.37-1.65,8.37-5.6c0-4.22-3.3-5.67-9.83-6.53-5.6-.73-10.68-2.64-10.68-9.3,0-5.34,4-8.9,11.47-8.9,5.21,0,9.17,1.38,11.67,5.47Z"/><path class="cls-2" d="M383.7,13.53h4.22V6.27h3.63v7.25h8.11v3.36h-8.11V35.36c0,5.28.59,7.65,5.94,7.65h2.18v3.5h-2.31c-7.32,0-9.43-3.3-9.43-10.15V16.89H383.7Z"/><path class="cls-2" d="M432.36,46.5h-3.63V42.08c-1.78,3.1-4.81,4.81-9.76,4.81-7.32,0-12.07-4.48-12.07-13.85V13.53h3.63V33c0,7.45,3.76,10.42,8.84,10.42,6.27,0,9.36-4.15,9.36-10.15V13.53h3.63Z"/><path class="cls-2" d="M462.75,1h3.63V46.5h-3.63v-4c-1.85,3-5,4.42-10,4.42-8.57,0-12.86-5.54-12.86-14.57V27.58c0-9.36,4.68-14.44,12.86-14.44,4.95,0,8.11,1.58,10,4.68Zm0,31.39V27.64c0-6.73-2.64-11.14-9.69-11.14-6.27,0-9.5,3.89-9.5,11.08v4.75c0,6.92,3.1,11.21,9.5,11.21C460.45,43.53,462.75,38.85,462.75,32.39Z"/><path class="cls-2" d="M476.2,1h4.42V5.42H476.2Zm.4,12.53h3.63v33H476.6Z"/><path class="cls-2" d="M502.18,46.9c-8.51,0-13.39-5.27-13.39-14.51V27.58c0-9.36,4.95-14.44,13.39-14.44s13.39,5.08,13.39,14.44v4.81C515.56,41.36,511,46.9,502.18,46.9Zm9.76-19.32c0-7.19-3.5-11.08-9.76-11.08s-9.76,3.89-9.76,11.08v4.81c0,6.92,3.1,11.14,9.76,11.14,6.4,0,9.76-4.22,9.76-11.14Z"/><path class="cls-2" d="M347.84,83.69c-1.52-7.71-6.07-10.62-12.27-10.62-7.78,0-12.33,4.48-12.33,16.88v5.41c0,12.46,4.62,16.88,12.33,16.88,6.59,0,10.81-3.5,12.27-10.75h3.69c-1.45,10.22-8.18,14.31-16,14.31-9.89,0-16.16-5.74-16.16-20.44V90c0-14.71,6.26-20.44,16.16-20.44,8.11,0,14.57,4.22,16,14.18Z"/><path class="cls-2" d="M362.27,95.56v19.85h-3.63v-33h3.63v4.48c1.38-3,4.15-4.88,8.31-4.88a10.75,10.75,0,0,1,9.3,4.55l-3,2.24a7.67,7.67,0,0,0-6.59-3.36C365.11,85.47,362.27,89.56,362.27,95.56Z"/><path class="cls-2" d="M385.88,99.84v1.39c0,6.53,3,11.21,10,11.21,4,0,6.73-1.19,8.57-4l2.9,2c-2.31,3.63-5.94,5.34-11.28,5.34-8.77,0-13.85-5.41-13.85-14.57V96.48C382.25,87.12,386.73,82,395,82s12.73,5.08,12.73,14.44v3.36Zm0-3.3h18.2v-.07c0-7.19-3.1-11.08-9.1-11.08s-9.1,4-9.1,11.08Z"/><path class="cls-2" d="M425.37,96.68H435V92.59c0-5.61-2.24-7.12-8.31-7.12-4,0-6.53.26-8.64,3.76l-2.77-1.91c2.31-3.89,5.6-5.27,11.47-5.27,8,0,11.87,2.51,11.87,10.55v22.82H435v-4.09c-1.85,3.5-5.14,4.48-9.36,4.48-7.32,0-11.47-3.5-11.47-9.82S418.58,96.68,425.37,96.68ZM435,99.91h-9.63c-5.67,0-7.58,2.64-7.58,6.13,0,4.62,3.23,6.33,7.85,6.33,5.34,0,9.36-1.85,9.36-9.23Z"/><path class="cls-2" d="M444.95,82.44h4.22V75.18h3.63v7.25h8.11V85.8H452.8v18.46c0,5.28.59,7.65,5.94,7.65h2.18v3.5H458.6c-7.32,0-9.43-3.3-9.43-10.15V85.8h-4.22Z"/><path class="cls-2" d="M468.75,69.91h4.42v4.42h-4.42Zm.4,12.53h3.63v33h-3.63Z"/><path class="cls-2" d="M509.37,82.44l-13.32,33h-3.56L479,82.44h4l11.14,28.16,11.14-28.16Z"/><path class="cls-2" d="M526.24,115.8c-8.51,0-13.39-5.27-13.39-14.51V96.48c0-9.36,4.95-14.44,13.39-14.44s13.39,5.08,13.39,14.44v4.81C539.63,110.26,535.08,115.8,526.24,115.8ZM536,96.48c0-7.19-3.5-11.08-9.76-11.08s-9.76,3.89-9.76,11.08v4.81c0,6.92,3.1,11.14,9.76,11.14,6.4,0,9.76-4.22,9.76-11.14Z"/></g></g></svg>